<svg width="1280" height="320" viewBox="0 0 1280 320" fill="none" xmlns="http://www.w3.org/2000/svg">
  <defs>
    <linearGradient id="bg" x1="26" y1="20" x2="224" y2="234" gradientUnits="userSpaceOnUse">
      <stop stop-color="#201C31"/>
      <stop offset="1" stop-color="#12141F"/>
    </linearGradient>
    <linearGradient id="accent" x1="66" y1="54" x2="196" y2="184" gradientUnits="userSpaceOnUse">
      <stop stop-color="#DCB8FF"/>
      <stop offset="0.58" stop-color="#A5C8FF"/>
      <stop offset="1" stop-color="#4CE346"/>
    </linearGradient>
  </defs>

  <rect x="24" y="24" width="192" height="192" rx="50" fill="url(#bg)"/>
  <rect x="25.5" y="25.5" width="189" height="189" rx="48.5" stroke="#E8D3FF" stroke-opacity="0.14" stroke-width="3"/>
  <circle cx="120" cy="86" r="20" fill="url(#accent)"/>
  <path d="M80 151C80 131.118 96.1177 115 116 115H124C143.882 115 160 131.118 160 151V153C160 157.418 156.418 161 152 161H88C83.5817 161 80 157.418 80 153V151Z" fill="url(#accent)"/>
  <circle cx="120" cy="120" r="58" stroke="#CBB8FF" stroke-opacity="0.24" stroke-width="10"/>
  <path d="M46 122H78L95 101L114 140L132 78L150 122H194" stroke="url(#accent)" stroke-width="10" stroke-linecap="round" stroke-linejoin="round"/>
  <circle cx="193" cy="122" r="7" fill="#4CE346"/>

  <path d="M298.457 101.832H349.645C390.485 101.832 414.661 123.75 414.661 158.183C414.661 192.803 390.485 214.721 349.645 214.721H323.008V268H298.457V101.832ZM348.523 193.177C374.197 193.177 389.549 180.979 389.549 158.183C389.549 135.574 374.197 123.376 348.523 123.376H323.008V193.177H348.523Z" fill="#E4E1EA"/>
  <path d="M481.382 269.495C447.136 269.495 423.708 244.009 423.708 206.961C423.708 169.913 447.136 144.426 481.382 144.426C515.442 144.426 538.869 169.913 538.869 206.961C538.869 244.009 515.442 269.495 481.382 269.495ZM481.382 248.698C500.838 248.698 515.441 233.721 515.441 206.961C515.441 180.2 500.838 165.223 481.382 165.223C461.739 165.223 447.135 180.2 447.135 206.961C447.135 233.721 461.739 248.698 481.382 248.698Z" fill="#E4E1EA"/>
  <path d="M617.554 144.426C649.554 144.426 669.384 163.737 669.384 199.102V268H646.703V202.048C646.703 178.246 634.691 166.784 614.673 166.784C592.367 166.784 578.137 180.388 578.137 206.025V268H555.456V145.922H577.137V161.46C586.119 150.371 600.909 144.426 617.554 144.426Z" fill="#E4E1EA"/>
  <path d="M747.887 144.426C780.635 144.426 800.278 163.737 800.278 203.487V268H778.785V254.022C772.278 263.613 759.893 269.495 742.5 269.495C715.328 269.495 698.096 254.957 698.096 234.315C698.096 215.378 710.293 199.696 746.577 199.696H777.537V203.861C777.537 183.625 765.899 171.861 742.312 171.861C726.587 171.861 710.481 177.245 699.954 185.84L690.549 168.859C704.778 157.396 725.358 144.426 747.887 144.426ZM746.292 251.898C761.083 251.898 773.093 245.201 777.537 233.347V218.556H747.449C727.245 218.556 721.586 226.591 721.586 233.908C721.586 244.196 730.17 251.898 746.292 251.898Z" fill="#E4E1EA"/>
  <path d="M820.365 97.0737H843.046V268H820.365V97.0737Z" fill="#E4E1EA"/>
  <path d="M867.048 145.922H889.729V268H867.048V145.922ZM878.5 122.431C869.705 122.431 862.762 115.734 862.762 107.074C862.762 98.4141 869.705 91.7168 878.5 91.7168C887.294 91.7168 894.238 98.0393 894.238 106.511C894.238 115.546 887.481 122.431 878.5 122.431Z" fill="#E4E1EA"/>
  <path d="M966.773 269.495C946.565 269.495 926.917 263.551 915.473 254.022L924.878 236.104C936.143 244.383 953.378 249.951 969.899 249.951C990.666 249.951 999.61 243.965 999.61 233.908C999.61 206.401 919.575 230.119 919.575 181.486C919.575 158.439 940.152 144.426 972.584 144.426C989.108 144.426 1007.01 148.778 1018.09 156.061L1008.5 173.979C996.857 166.51 984.318 164.008 972.399 164.008C952.946 164.008 943.437 171.212 943.437 180.237C943.437 209.184 1023.66 185.653 1023.66 233.095C1023.66 256.33 1002.52 269.495 966.773 269.495Z" fill="#E4E1EA"/>
  <path d="M1114.09 261.865C1107.4 267.741 1097.61 269.495 1088.11 269.495C1062.44 269.495 1047.65 255.236 1047.65 229.786V164.57H1027.45V145.922H1047.65V119.193H1070.33V145.922H1104.39V164.57H1070.33V228.851C1070.33 241.24 1076.84 248.16 1088.67 248.16C1094.97 248.16 1101.05 246.47 1105.37 242.864L1114.09 261.865Z" fill="#E4E1EA"/>
  <path d="M1184.29 269.495C1146.87 269.495 1120.3 243.634 1120.3 206.961C1120.3 170.288 1146.87 144.426 1184.29 144.426C1207.51 144.426 1226.59 154.12 1236.55 172.799L1219.26 183.907C1211.2 171.516 1198.84 165.223 1184.1 165.223C1164.09 165.223 1143.79 179.636 1143.79 206.961C1143.79 234.848 1164.09 248.698 1184.1 248.698C1198.84 248.698 1211.2 242.404 1219.26 230.014L1236.55 240.933C1226.59 259.612 1207.51 269.495 1184.29 269.495Z" fill="#E4E1EA"/>
</svg>
